<?xml version="1.0" encoding="UTF-8"?>
<!-- Generator: visioncortex VTracer 0.6.3 -->
<svg version="1.1" xmlns="http://www.w3.org/2000/svg" width="1280" height="1280">
<path d="M0 0 C11.88 0 23.76 0 36 0 C36 0.33 36 0.66 36 1 C37.1 1.05 38.21 1.1 39.34 1.15 C43.51 1.34 47.67 1.54 51.84 1.74 C53.63 1.83 55.42 1.91 57.21 1.99 C68.26 2.5 79.05 3.39 90 5 C92.65 5.34 95.31 5.67 97.96 6 C99.29 6.17 100.62 6.33 101.95 6.5 C103.96 6.75 105.97 7 107.98 7.25 C115.13 8.13 122.05 9.09 129 11 C131.29 11.47 133.58 11.93 135.88 12.38 C138.58 12.91 141.29 13.46 144 14 C144.68 14.14 145.37 14.27 146.07 14.41 C158.41 16.91 170.36 20.39 182.36 24.17 C184.69 24.9 187.02 25.61 189.35 26.32 C199.73 29.45 209.88 33.12 220 37 C220.8 37.31 221.61 37.62 222.44 37.93 C241.42 45.25 259.94 53.65 278 63 C278.72 63.37 279.43 63.74 280.17 64.12 C282.41 65.28 284.64 66.45 286.88 67.62 C287.87 68.15 287.87 68.15 288.89 68.68 C294.38 71.59 299.69 74.77 305 78 C306.86 79.12 308.72 80.24 310.59 81.37 C324.45 89.76 337.98 98.34 351 108 C351.59 108.43 352.18 108.87 352.78 109.31 C362.49 116.47 371.92 123.91 381.24 131.56 C383.7 133.57 386.19 135.53 388.69 137.5 C392.02 140.15 395.03 142.95 398 146 C398.83 146.66 399.65 147.32 400.5 148 C403.21 150.17 405.56 152.53 408 155 C409.76 156.75 411.52 158.49 413.27 160.24 C414.79 161.75 416.3 163.26 417.82 164.76 C418.85 165.79 419.89 166.82 420.92 167.84 C426.84 173.72 432.58 179.66 438 186 C439.62 187.78 441.24 189.55 442.88 191.31 C447.79 196.71 452.45 202.29 457 208 C457.44 208.55 457.88 209.1 458.33 209.67 C464.42 217.31 470.31 225.05 476 233 C476.73 234 477.47 234.99 478.22 236.02 C488.31 249.79 497.3 264.33 506 279 C506.45 279.76 506.9 280.52 507.37 281.31 C513.26 291.26 518.88 301.29 523.9 311.71 C525.16 314.34 526.45 316.96 527.73 319.58 C532.4 329.19 536.91 338.79 540.75 348.76 C541.89 351.73 543.12 354.64 544.38 357.56 C546.77 363.29 548.93 369.1 551.06 374.94 C551.56 376.28 551.56 376.28 552.06 377.64 C554.61 384.69 556.83 391.82 559 399 C559.65 401.12 560.31 403.24 560.96 405.37 C576.24 455.46 582.4 506.51 582.26 558.71 C582.25 563.12 582.26 567.52 582.27 571.92 C582.33 598.53 581.36 624.7 577 651 C576.68 652.92 576.68 652.92 576.36 654.88 C572.3 679.22 567.23 702.84 559.81 726.41 C559.09 728.71 558.38 731.02 557.69 733.34 C554.55 743.72 550.88 753.87 547 764 C546.69 764.8 546.38 765.61 546.07 766.44 C538.75 785.42 530.35 803.94 521 822 C520.63 822.72 520.26 823.43 519.88 824.17 C518.72 826.41 517.55 828.64 516.38 830.88 C516.03 831.54 515.68 832.21 515.32 832.89 C512.41 838.38 509.23 843.69 506 849 C504.88 850.86 503.76 852.72 502.63 854.59 C494.24 868.45 485.66 881.98 476 895 C475.57 895.59 475.13 896.18 474.69 896.78 C467.53 906.49 460.09 915.92 452.44 925.24 C450.43 927.7 448.47 930.19 446.5 932.69 C443.85 936.02 441.05 939.03 438 942 C437.34 942.83 436.68 943.65 436 944.5 C433.83 947.21 431.47 949.56 429 952 C427.25 953.76 425.51 955.52 423.76 957.27 C422.25 958.79 420.74 960.3 419.24 961.82 C418.21 962.85 417.18 963.89 416.16 964.92 C410.28 970.84 404.34 976.58 398 982 C396.22 983.62 394.45 985.24 392.69 986.88 C387.29 991.79 381.71 996.45 376 1001 C375.45 1001.44 374.9 1001.88 374.33 1002.33 C366.69 1008.42 358.95 1014.31 351 1020 C350 1020.73 349.01 1021.47 347.98 1022.22 C334.21 1032.31 319.67 1041.3 305 1050 C304.24 1050.45 303.48 1050.9 302.69 1051.37 C292.74 1057.26 282.71 1062.88 272.29 1067.9 C269.66 1069.16 267.04 1070.45 264.42 1071.73 C254.81 1076.4 245.21 1080.91 235.24 1084.75 C232.27 1085.89 229.36 1087.12 226.44 1088.38 C220.71 1090.77 214.9 1092.93 209.06 1095.06 C208.17 1095.39 207.28 1095.72 206.36 1096.06 C199.31 1098.61 192.18 1100.83 185 1103 C182.88 1103.65 180.76 1104.31 178.63 1104.96 C161.23 1110.27 143.72 1114.91 125.7 1117.54 C123.4 1117.93 121.17 1118.42 118.91 1118.96 C113.44 1120.19 107.94 1120.85 102.38 1121.5 C100.24 1121.76 98.1 1122.02 95.96 1122.27 C94.94 1122.4 93.91 1122.52 92.85 1122.65 C89.21 1123.1 85.57 1123.61 81.94 1124.12 C68.63 1125.9 55.35 1126.16 41.95 1126.17 C40.24 1126.17 38.53 1126.17 36.82 1126.18 C33.25 1126.18 29.68 1126.19 26.12 1126.19 C22.52 1126.19 18.92 1126.19 15.32 1126.21 C-11.64 1126.31 -38.04 1125.53 -64.73 1121.35 C-66.86 1121.02 -68.99 1120.72 -71.13 1120.43 C-76.44 1119.72 -81.62 1118.97 -86.79 1117.56 C-89.79 1116.8 -92.83 1116.22 -95.88 1115.62 C-98.58 1115.09 -101.29 1114.54 -104 1114 C-104.68 1113.86 -105.37 1113.73 -106.07 1113.59 C-118.41 1111.09 -130.36 1107.61 -142.36 1103.83 C-144.69 1103.1 -147.02 1102.39 -149.35 1101.68 C-159.73 1098.55 -169.88 1094.88 -180 1091 C-181.21 1090.54 -181.21 1090.54 -182.44 1090.07 C-201.42 1082.75 -219.94 1074.35 -238 1065 C-238.72 1064.63 -239.43 1064.26 -240.17 1063.88 C-242.41 1062.72 -244.64 1061.55 -246.88 1060.38 C-247.54 1060.03 -248.21 1059.68 -248.89 1059.32 C-254.38 1056.41 -259.69 1053.23 -265 1050 C-266.86 1048.88 -268.72 1047.76 -270.59 1046.63 C-284.45 1038.24 -297.98 1029.66 -311 1020 C-311.59 1019.57 -312.18 1019.13 -312.78 1018.69 C-322.49 1011.53 -331.92 1004.09 -341.24 996.44 C-343.7 994.43 -346.19 992.47 -348.69 990.5 C-352.02 987.85 -355.03 985.05 -358 982 C-358.82 981.34 -359.65 980.68 -360.5 980 C-363.21 977.83 -365.56 975.47 -368 973 C-369.76 971.25 -371.52 969.51 -373.27 967.76 C-374.79 966.25 -376.3 964.74 -377.82 963.24 C-378.85 962.21 -379.89 961.18 -380.92 960.16 C-386.84 954.28 -392.58 948.34 -398 942 C-399.62 940.22 -401.24 938.45 -402.88 936.69 C-407.79 931.29 -412.45 925.71 -417 920 C-417.66 919.17 -417.66 919.17 -418.33 918.33 C-424.42 910.69 -430.31 902.95 -436 895 C-436.73 894 -437.47 893.01 -438.22 891.98 C-448.31 878.21 -457.3 863.67 -466 849 C-466.45 848.24 -466.9 847.48 -467.37 846.69 C-473.26 836.74 -478.88 826.71 -483.9 816.29 C-485.16 813.66 -486.45 811.04 -487.73 808.42 C-492.4 798.81 -496.91 789.21 -500.75 779.24 C-501.89 776.27 -503.12 773.36 -504.38 770.44 C-506.77 764.71 -508.93 758.9 -511.06 753.06 C-511.39 752.17 -511.72 751.28 -512.06 750.36 C-514.61 743.31 -516.83 736.18 -519 729 C-519.65 726.88 -520.31 724.76 -520.96 722.63 C-535.14 676.16 -541.38 628.44 -543 580 C-543.33 580 -543.66 580 -544 580 C-544 568.12 -544 556.24 -544 544 C-543.67 544 -543.34 544 -543 544 C-542.95 543.02 -542.9 542.04 -542.85 541.03 C-542.66 537.31 -542.46 533.59 -542.26 529.87 C-542.17 528.28 -542.09 526.68 -542.01 525.09 C-541.47 514.62 -540.5 504.38 -539 494 C-538.7 491.61 -538.4 489.21 -538.11 486.82 C-536.24 471.92 -533.89 457.27 -530.58 442.62 C-530.04 440.19 -529.53 437.76 -529.04 435.32 C-526.68 423.87 -523.34 412.79 -519.83 401.64 C-519.1 399.31 -518.39 396.98 -517.68 394.65 C-514.55 384.27 -510.88 374.12 -507 364 C-506.69 363.2 -506.38 362.39 -506.07 361.56 C-498.75 342.58 -490.35 324.06 -481 306 C-480.63 305.28 -480.26 304.57 -479.88 303.83 C-478.72 301.59 -477.55 299.36 -476.38 297.12 C-476.03 296.46 -475.68 295.79 -475.32 295.11 C-472.41 289.62 -469.23 284.31 -466 279 C-464.88 277.14 -463.76 275.28 -462.63 273.41 C-454.24 259.55 -445.66 246.02 -436 233 C-435.57 232.41 -435.13 231.82 -434.69 231.22 C-427.53 221.51 -420.09 212.08 -412.44 202.76 C-410.43 200.3 -408.47 197.81 -406.5 195.31 C-403.85 191.98 -401.05 188.97 -398 186 C-397.34 185.18 -396.68 184.35 -396 183.5 C-393.83 180.79 -391.47 178.44 -389 176 C-387.25 174.24 -385.51 172.48 -383.76 170.73 C-382.25 169.21 -380.74 167.7 -379.24 166.18 C-378.21 165.15 -377.18 164.11 -376.16 163.08 C-370.28 157.16 -364.34 151.42 -358 146 C-356.22 144.38 -354.45 142.76 -352.69 141.12 C-347.29 136.21 -341.71 131.55 -336 127 C-335.45 126.56 -334.9 126.12 -334.33 125.67 C-326.69 119.58 -318.95 113.69 -311 108 C-310 107.27 -309.01 106.53 -307.98 105.78 C-294.21 95.69 -279.67 86.7 -265 78 C-264.24 77.55 -263.48 77.1 -262.69 76.63 C-252.74 70.74 -242.71 65.12 -232.29 60.1 C-229.66 58.84 -227.04 57.55 -224.42 56.27 C-214.81 51.6 -205.21 47.09 -195.24 43.25 C-192.27 42.11 -189.36 40.88 -186.44 39.62 C-180.71 37.23 -174.9 35.07 -169.06 32.94 C-168.17 32.61 -167.28 32.28 -166.36 31.94 C-159.31 29.39 -152.18 27.17 -145 25 C-142.88 24.35 -140.76 23.69 -138.63 23.04 C-121.23 17.73 -103.72 13.09 -85.7 10.46 C-83.4 10.07 -81.17 9.58 -78.91 9.04 C-73.44 7.81 -67.94 7.15 -62.38 6.5 C-60.38 6.26 -58.39 6.02 -56.4 5.78 C-55.37 5.66 -54.33 5.54 -53.27 5.41 C-51.02 5.13 -48.78 4.82 -46.53 4.5 C-36.55 3.07 -26.63 2.39 -16.56 1.88 C-14.94 1.79 -13.33 1.7 -11.71 1.61 C-7.81 1.4 -3.9 1.2 0 1 C0 0.67 0 0.34 0 0 Z M-33.44 117.19 C-34.44 117.31 -35.45 117.44 -36.49 117.56 C-46.21 118.81 -55.89 120.35 -65.56 121.94 C-66.31 122.06 -67.06 122.18 -67.84 122.3 C-81.62 124.55 -95.08 127.65 -108.44 131.75 C-109.25 132 -110.06 132.24 -110.89 132.5 C-113.6 133.32 -116.3 134.16 -119 135 C-120.05 135.33 -121.1 135.65 -122.19 135.99 C-125.52 137.03 -128.86 138.07 -132.19 139.12 C-133.23 139.45 -134.27 139.77 -135.34 140.11 C-140.61 141.79 -145.69 143.63 -150.72 145.95 C-153.25 147.12 -155.81 148.21 -158.38 149.3 C-169.56 154.06 -180.4 159.06 -191 165 C-192.81 165.98 -194.62 166.96 -196.44 167.94 C-198.29 168.96 -200.15 169.98 -202 171 C-202.62 171.34 -203.23 171.67 -203.86 172.02 C-211.51 176.2 -218.97 180.4 -225.98 185.59 C-227.93 186.95 -229.86 188 -232 189 C-232 189.66 -232 190.32 -232 191 C-232.67 191.22 -233.34 191.43 -234.02 191.65 C-237.99 193.45 -241.19 195.92 -244.62 198.56 C-245.33 199.1 -246.04 199.64 -246.77 200.19 C-251.75 203.99 -256.64 207.88 -261.45 211.88 C-263.13 213.28 -264.84 214.66 -266.55 216.03 C-279.75 226.54 -291.63 238.54 -303.56 250.44 C-304.08 250.95 -304.6 251.47 -305.13 252 C-310.97 257.82 -316.67 263.7 -322 270 C-322.91 271.06 -323.83 272.11 -324.74 273.17 C-333.14 283.03 -341.03 293.19 -348.62 303.69 C-349.06 304.29 -349.5 304.89 -349.95 305.51 C-352.27 308.46 -352.27 308.46 -353 312 C-353.66 312 -354.32 312 -355 312 C-356.16 313.77 -357.23 315.59 -358.25 317.44 C-360.35 321.14 -362.45 324.76 -364.88 328.25 C-372.3 339.21 -378.2 351.15 -384.01 363.01 C-385 364.99 -386.01 366.96 -387.03 368.93 C-391.75 378.05 -395.67 387.33 -399.24 396.95 C-399.73 398.28 -400.23 399.59 -400.73 400.91 C-406.57 416.25 -411.58 431.9 -415.47 447.85 C-415.97 449.87 -416.49 451.88 -417.02 453.9 C-421.72 472.32 -424.42 491.34 -426.75 510.19 C-426.87 511.1 -426.98 512.02 -427.1 512.96 C-428.96 528.93 -429.16 544.99 -429.13 561.04 C-429.13 564 -429.13 566.95 -429.14 569.91 C-429.14 585.79 -428.78 601.66 -426.81 617.44 C-426.69 618.44 -426.56 619.45 -426.44 620.49 C-425.19 630.21 -423.65 639.89 -422.06 649.56 C-421.94 650.31 -421.82 651.06 -421.7 651.84 C-419.45 665.62 -416.35 679.08 -412.25 692.44 C-411.88 693.65 -411.88 693.65 -411.5 694.89 C-410.68 697.6 -409.84 700.3 -409 703 C-408.67 704.05 -408.35 705.1 -408.01 706.19 C-406.97 709.52 -405.93 712.86 -404.88 716.19 C-404.39 717.75 -404.39 717.75 -403.89 719.34 C-402.21 724.61 -400.37 729.69 -398.05 734.72 C-396.88 737.25 -395.79 739.81 -394.7 742.38 C-389.94 753.56 -384.94 764.4 -379 775 C-378.02 776.81 -377.04 778.62 -376.06 780.44 C-375.04 782.29 -374.02 784.15 -373 786 C-372.5 786.92 -372.5 786.92 -371.98 787.86 C-367.8 795.51 -363.6 802.97 -358.41 809.98 C-357.05 811.93 -356 813.86 -355 816 C-354.34 816 -353.68 816 -353 816 C-352.68 817 -352.68 817 -352.35 818.02 C-350.55 821.99 -348.08 825.19 -345.44 828.62 C-344.9 829.33 -344.36 830.04 -343.81 830.77 C-340.01 835.75 -336.12 840.64 -332.12 845.45 C-330.72 847.13 -329.34 848.84 -327.97 850.55 C-317.46 863.75 -305.46 875.63 -293.56 887.56 C-293.05 888.08 -292.53 888.6 -292 889.13 C-286.18 894.97 -280.3 900.67 -274 906 C-272.94 906.91 -271.89 907.83 -270.83 908.74 C-260.97 917.14 -250.81 925.03 -240.31 932.62 C-239.71 933.06 -239.11 933.5 -238.49 933.95 C-235.54 936.27 -235.54 936.27 -232 937 C-232 937.66 -232 938.32 -232 939 C-230.23 940.16 -228.41 941.23 -226.56 942.25 C-222.86 944.35 -219.24 946.45 -215.75 948.88 C-204.79 956.3 -192.85 962.2 -180.99 968.01 C-179.01 969 -177.04 970.01 -175.07 971.03 C-165.95 975.75 -156.67 979.67 -147.05 983.24 C-145.72 983.73 -144.41 984.23 -143.09 984.73 C-127.75 990.57 -112.1 995.58 -96.15 999.47 C-94.13 999.97 -92.12 1000.49 -90.1 1001.02 C-71.68 1005.72 -52.66 1008.42 -33.81 1010.75 C-32.9 1010.87 -31.98 1010.98 -31.04 1011.1 C-15.07 1012.96 0.99 1013.16 17.04 1013.13 C20 1013.13 22.95 1013.13 25.91 1013.14 C41.79 1013.14 57.66 1012.78 73.44 1010.81 C74.95 1010.63 74.95 1010.63 76.49 1010.44 C86.21 1009.19 95.89 1007.65 105.56 1006.06 C106.31 1005.94 107.06 1005.82 107.84 1005.7 C121.62 1003.45 135.08 1000.35 148.44 996.25 C149.25 996 150.06 995.76 150.89 995.5 C153.6 994.68 156.3 993.84 159 993 C160.05 992.67 161.1 992.35 162.19 992.01 C165.52 990.97 168.86 989.93 172.19 988.88 C173.23 988.55 174.27 988.23 175.34 987.89 C180.61 986.21 185.69 984.37 190.72 982.05 C193.25 980.88 195.81 979.79 198.38 978.7 C209.56 973.94 220.4 968.94 231 963 C232.81 962.02 234.62 961.04 236.44 960.06 C238.29 959.04 240.15 958.02 242 957 C242.62 956.66 243.23 956.33 243.86 955.98 C251.51 951.8 258.97 947.6 265.98 942.41 C267.93 941.05 269.86 940 272 939 C272 938.34 272 937.68 272 937 C272.67 936.78 273.34 936.57 274.02 936.35 C277.99 934.55 281.19 932.08 284.62 929.44 C285.33 928.9 286.04 928.36 286.77 927.81 C291.75 924.01 296.64 920.12 301.45 916.12 C303.13 914.72 304.84 913.34 306.55 911.97 C319.75 901.46 331.63 889.46 343.56 877.56 C344.08 877.05 344.6 876.53 345.13 876 C350.97 870.18 356.67 864.3 362 858 C362.91 856.94 363.83 855.89 364.74 854.83 C373.14 844.97 381.03 834.81 388.62 824.31 C389.06 823.71 389.5 823.11 389.95 822.49 C392.27 819.54 392.27 819.54 393 816 C393.66 816 394.32 816 395 816 C396.16 814.23 397.23 812.41 398.25 810.56 C400.35 806.86 402.45 803.24 404.88 799.75 C412.3 788.79 418.2 776.85 424.01 764.99 C425 763.01 426.01 761.04 427.03 759.07 C431.75 749.95 435.67 740.67 439.24 731.05 C439.73 729.72 440.23 728.41 440.73 727.09 C446.57 711.75 451.58 696.1 455.47 680.15 C455.97 678.13 456.49 676.12 457.02 674.1 C461.72 655.68 464.42 636.66 466.75 617.81 C466.87 616.9 466.98 615.98 467.1 615.04 C468.96 599.07 469.16 583.01 469.13 566.96 C469.13 564 469.13 561.05 469.14 558.09 C469.14 542.21 468.78 526.34 466.81 510.56 C466.63 509.05 466.63 509.05 466.44 507.51 C465.19 497.79 463.65 488.11 462.06 478.44 C461.88 477.31 461.88 477.31 461.7 476.16 C459.45 462.38 456.35 448.92 452.25 435.56 C452 434.75 451.76 433.94 451.5 433.11 C450.68 430.4 449.84 427.7 449 425 C448.67 423.95 448.35 422.9 448.01 421.81 C446.97 418.48 445.93 415.14 444.88 411.81 C444.55 410.77 444.23 409.73 443.89 408.66 C442.21 403.39 440.37 398.31 438.05 393.28 C436.88 390.75 435.79 388.19 434.7 385.62 C429.94 374.44 424.94 363.6 419 353 C418.02 351.19 417.04 349.38 416.06 347.56 C415.04 345.71 414.02 343.85 413 342 C412.66 341.38 412.33 340.77 411.98 340.14 C407.8 332.49 403.6 325.03 398.41 318.02 C397.05 316.07 396 314.14 395 312 C394.34 312 393.68 312 393 312 C392.78 311.33 392.57 310.66 392.35 309.98 C390.55 306.01 388.08 302.81 385.44 299.38 C384.9 298.67 384.36 297.96 383.81 297.23 C380.01 292.25 376.12 287.36 372.12 282.55 C370.72 280.87 369.34 279.16 367.97 277.45 C357.46 264.25 345.46 252.37 333.56 240.44 C333.05 239.92 332.53 239.4 332 238.87 C326.18 233.03 320.3 227.33 314 222 C312.94 221.09 311.89 220.17 310.83 219.26 C300.97 210.86 290.81 202.97 280.31 195.38 C279.71 194.94 279.11 194.5 278.49 194.05 C275.54 191.73 275.54 191.73 272 191 C272 190.34 272 189.68 272 189 C270.23 187.84 268.41 186.77 266.56 185.75 C262.86 183.65 259.24 181.55 255.75 179.12 C244.79 171.7 232.85 165.8 220.99 159.99 C219.01 159 217.04 157.99 215.07 156.97 C205.95 152.25 196.67 148.33 187.05 144.76 C185.72 144.27 184.41 143.77 183.09 143.27 C167.75 137.43 152.1 132.42 136.15 128.53 C134.13 128.03 132.12 127.51 130.1 126.98 C111.68 122.28 92.66 119.58 73.81 117.25 C72.9 117.13 71.98 117.02 71.04 116.9 C55.07 115.04 39.01 114.84 22.96 114.87 C20 114.87 17.05 114.87 14.09 114.86 C-1.79 114.86 -17.66 115.22 -33.44 117.19 Z " fill="#DE8B86" transform="translate(620,76)"/>
<path d="M0 0 C0.94 -0 1.88 -0.01 2.86 -0.01 C4.42 -0.01 4.42 -0.01 6.01 -0 C7.1 -0 8.2 -0.01 9.32 -0.01 C12.95 -0.01 16.57 -0.01 20.2 -0.01 C22.7 -0.01 25.21 -0.01 27.72 -0.01 C32.98 -0.01 38.24 -0.01 43.51 -0 C49.6 0 55.69 0 61.78 -0.01 C67.63 -0.01 73.48 -0.01 79.33 -0.01 C81.83 -0.01 84.32 -0.01 86.82 -0.01 C90.3 -0.01 93.78 -0.01 97.26 -0 C98.3 -0 99.34 -0.01 100.41 -0.01 C101.83 -0 101.83 -0 103.27 0 C104.09 0 104.92 0 105.77 0 C107.63 0.13 107.63 0.13 108.63 1.13 C108.73 2.92 108.76 4.72 108.76 6.51 C108.76 7.69 108.77 8.86 108.77 10.07 C108.77 11.38 108.76 12.69 108.76 14.03 C108.76 15.42 108.76 16.81 108.77 18.2 C108.77 22.04 108.77 25.88 108.77 29.72 C108.76 33.85 108.77 37.98 108.77 42.12 C108.77 50.22 108.77 58.32 108.77 66.42 C108.77 73 108.77 79.59 108.77 86.17 C108.77 87.1 108.77 88.04 108.77 89 C108.77 90.9 108.77 92.8 108.77 94.7 C108.77 112.53 108.77 130.35 108.76 148.18 C108.76 163.5 108.76 178.81 108.76 194.12 C108.77 211.89 108.77 229.65 108.77 247.41 C108.77 249.3 108.77 251.19 108.77 253.09 C108.77 254.48 108.77 254.48 108.77 255.91 C108.77 262.49 108.77 269.06 108.77 275.64 C108.77 283.65 108.77 291.66 108.77 299.67 C108.76 303.76 108.76 307.85 108.77 311.95 C108.77 315.68 108.77 319.42 108.76 323.16 C108.76 325.17 108.76 327.18 108.77 329.18 C108.76 330.95 108.76 330.95 108.76 332.74 C108.76 333.77 108.76 334.79 108.76 335.84 C108.63 338.13 108.63 338.13 107.63 339.13 C106.18 339.22 104.72 339.25 103.27 339.25 C101.86 339.26 101.86 339.26 100.41 339.26 C98.85 339.26 98.85 339.26 97.26 339.26 C95.62 339.26 95.62 339.26 93.95 339.26 C90.32 339.27 86.7 339.26 83.07 339.26 C80.56 339.26 78.06 339.26 75.55 339.26 C70.29 339.26 65.03 339.26 59.76 339.26 C53.67 339.25 47.58 339.25 41.49 339.26 C35.64 339.26 29.79 339.26 23.93 339.26 C21.44 339.26 18.95 339.26 16.45 339.26 C12.97 339.27 9.49 339.26 6.01 339.26 C4.97 339.26 3.93 339.26 2.86 339.26 C1.91 339.26 0.97 339.26 0 339.25 C-0.82 339.25 -1.65 339.25 -2.5 339.25 C-4.37 339.13 -4.37 339.13 -5.37 338.13 C-5.46 336.33 -5.49 334.54 -5.49 332.74 C-5.49 331.57 -5.5 330.39 -5.5 329.18 C-5.5 327.87 -5.49 326.57 -5.49 325.22 C-5.49 323.83 -5.5 322.44 -5.5 321.05 C-5.5 317.21 -5.5 313.37 -5.5 309.53 C-5.49 305.4 -5.5 301.27 -5.5 297.14 C-5.5 289.04 -5.5 280.93 -5.5 272.83 C-5.5 266.25 -5.5 259.67 -5.5 253.09 C-5.5 252.15 -5.5 251.22 -5.5 250.25 C-5.5 248.35 -5.5 246.46 -5.5 244.56 C-5.5 226.73 -5.5 208.9 -5.49 191.07 C-5.49 175.76 -5.49 160.44 -5.5 145.13 C-5.5 127.37 -5.5 109.61 -5.5 91.84 C-5.5 89.95 -5.5 88.06 -5.5 86.17 C-5.5 85.24 -5.5 84.31 -5.5 83.35 C-5.5 76.77 -5.5 70.19 -5.5 63.61 C-5.5 55.6 -5.5 47.59 -5.5 39.58 C-5.5 35.49 -5.49 31.4 -5.5 27.31 C-5.5 23.57 -5.5 19.83 -5.49 16.09 C-5.49 14.08 -5.5 12.08 -5.5 10.07 C-5.5 8.9 -5.49 7.72 -5.49 6.51 C-5.49 5.49 -5.49 4.46 -5.49 3.41 C-5.27 -0.59 -3.56 0 0 0 Z " fill="#DE8B86" transform="translate(588.365478515625,357.8730163574219)"/>
<path d="M0 0 C1.12 0.77 1.12 0.77 2.26 1.56 C13.96 10.14 22.08 21.47 25.53 35.7 C28.19 54.3 24.76 70.15 14.12 85.75 C2.89 97.64 -10.05 105.28 -26.66 106.2 C-44.8 106.42 -59.45 101.58 -73.01 89.16 C-84.27 77.21 -88.55 62.7 -88.49 46.7 C-88 30.72 -81.65 16.72 -69.97 5.71 C-67.11 3.22 -64.22 1 -61 -1 C-60.44 -1.36 -59.89 -1.72 -59.31 -2.09 C-42.62 -11.66 -15.68 -11.03 0 0 Z " fill="#DE8B86" transform="translate(671,816)"/>
</svg>
